<svg xmlns="http://www.w3.org/2000/svg" viewBox="0 0 24 24" fill="none" stroke="currentColor" stroke-width="1.4" stroke-linecap="round" stroke-linejoin="round" aria-hidden="true">
  <!-- patterns — tessellating hexagons (M5.3 cycle 103 D11 motif vocabulary: composability / repeating modules) -->
  <!-- center hex + 6 surrounding -->
  <polygon points="12,8.5 14.6,10 14.6,13 12,14.5 9.4,13 9.4,10"/>
  <polygon points="12,2 14.6,3.5 14.6,6.5 12,8 9.4,6.5 9.4,3.5"/>
  <polygon points="17.2,5 19.8,6.5 19.8,9.5 17.2,11 14.6,9.5 14.6,6.5"/>
  <polygon points="17.2,11 19.8,12.5 19.8,15.5 17.2,17 14.6,15.5 14.6,12.5"/>
  <polygon points="12,14 14.6,15.5 14.6,18.5 12,20 9.4,18.5 9.4,15.5"/>
  <polygon points="6.8,11 9.4,12.5 9.4,15.5 6.8,17 4.2,15.5 4.2,12.5"/>
  <polygon points="6.8,5 9.4,6.5 9.4,9.5 6.8,11 4.2,9.5 4.2,6.5"/>
</svg>
