<!-- GENERATED by scripts/build_graph_svg.mjs from site/src/data/vaults.json — do not edit by hand; run `npm run sync:graph`. HERO variant: 15 connected vaults, 14 relationships (compact radial; no grid). -->
<svg id="heroGraph" xmlns="http://www.w3.org/2000/svg" class="hero-graph-svg" viewBox="-464.92 -284.99 896.8 831.99" role="img" aria-labelledby="heroGraph-title heroGraph-desc" style="max-width:100%;height:auto"><title id="heroGraph-title">The connected aDNA network — 15 vaults joined by 14 relationships</title><desc id="heroGraph-desc">A compact radial map of the live aDNA network: 15 vaults are joined by 14 cited relationships (umbrella, federation, partner, companion) and drawn as a burst around the most-federated hubs (III and Astro), with the standard, aDNA, at the core. Each box names a vault and its persona; the full vault list at /vaults/graph is the keyboard-navigable twin.</desc><style>
/* Hero graph (build_graph_svg.mjs, Storyweave A): edges + arrowheads follow the page text colour so the
   graph reads on the dark (default) and light canvases; the vault chips keep their self-grounding light
   fill + near-black text (set inline). Scoped to #heroGraph — never collides with #vaultsGraph. */
#heroGraph{color:var(--color-text,#c0caf5);}
#heroGraph text{font-family:'Space Grotesk',system-ui,sans-serif;}
#heroGraph .edge{stroke:currentColor;fill:none;stroke-opacity:0.72;}
#heroGraph .edge-arrow{fill:currentColor;stroke:none;fill-opacity:0.82;}
</style><g class="edges"><line class="edge" x1="-81.91" y1="-34.98" x2="-49.52" y2="35.71" stroke-width="1.6"/><path class="edge-arrow" d="M-49.52,35.71 L-55.97,30.03 L-49.6,27.11 Z"/><line class="edge" x1="-232.55" y1="407" x2="-232.55" y2="324" stroke-width="1.6"/><path class="edge-arrow" d="M-232.55,324 L-229.04,331.85 L-236.06,331.85 Z"/><line class="edge" x1="-202.24" y1="442" x2="-167.6" y2="462" stroke-width="1.6"/><path class="edge-arrow" d="M-167.6,462 L-176.15,461.11 L-172.64,455.04 Z"/><line class="edge" x1="157.56" y1="-90.57" x2="-14.87" y2="35.71" stroke-width="1.6"/><path class="edge-arrow" d="M-14.87,35.71 L-10.6,28.24 L-6.46,33.9 Z"/><line class="edge" x1="192.8" y1="-90.57" x2="194.74" y2="27.21" stroke-width="1.6"/><path class="edge-arrow" d="M194.74,27.21 L191.1,19.42 L198.11,19.3 Z"/><line class="edge" x1="209.58" y1="-141.57" x2="249" y2="-199.99" stroke-width="3.4"/><path class="edge-arrow" d="M249,-199.99 L247.2,-189.75 L240.17,-194.49 Z"/><line class="edge" x1="-297.5" y1="462" x2="-262.86" y2="442" stroke-width="1.6" stroke-dasharray="7 5"/><path class="edge-arrow" d="M-262.86,442 L-267.91,448.96 L-271.42,442.89 Z"/><line class="edge" x1="-252.42" y1="487.5" x2="-207.73" y2="487.5" stroke-width="1.6"/><path class="edge-arrow" d="M-207.73,487.5 L-215.58,491.01 L-215.58,483.99 Z"/><line class="edge" x1="-38.42" y1="200" x2="-40.5" y2="73.71" stroke-width="1.6"/><path class="edge-arrow" d="M-40.5,73.71 L-36.86,81.5 L-43.87,81.62 Z"/><line class="edge" x1="-3.18" y1="200" x2="157.64" y2="82.21" stroke-width="1.6"/><path class="edge-arrow" d="M157.64,82.21 L153.38,89.68 L149.24,84.02 Z"/><line class="edge" x1="293.78" y1="324" x2="293.78" y2="399" stroke-width="1.6" stroke-dasharray="7 5"/><path class="edge-arrow" d="M293.78,399 L290.27,391.15 L297.29,391.15 Z"/><line class="edge" x1="-165.22" y1="-108.8" x2="-131.39" y2="-85.98" stroke-width="1.6" stroke-dasharray="7 5"/><path class="edge-arrow" d="M-131.39,-85.98 L-139.86,-87.46 L-135.94,-93.28 Z"/><line class="edge" x1="-240.83" y1="-159.8" x2="-274.9" y2="-182.78" stroke-width="1.6" stroke-dasharray="7 5"/><path class="edge-arrow" d="M-274.9,-182.78 L-266.43,-181.3 L-270.35,-175.48 Z"/><line class="edge" x1="236.29" y1="144.4" x2="207.79" y2="82.21" stroke-width="1.6"/><path class="edge-arrow" d="M207.79,82.21 L214.25,87.89 L207.87,90.81 Z"/></g><g class="nodes"><g class="node" data-slug="aDNA.aDNA"><rect x="188.42" y="144.4" width="119.1" height="51" rx="9" fill="#7dcfff" stroke="#33384d" stroke-width="1.2"/><text x="247.97" y="165.9" text-anchor="middle" font-size="16.5" font-weight="600" fill="#12131c">aDNA.aDNA</text><text x="247.97" y="184.78" text-anchor="middle" font-size="12.5" fill="#464c66">Rosetta</text></g><g class="node" data-slug="III.aDNA"><rect x="132.19" y="27.21" width="126" height="55" rx="9" fill="#d3d5db" stroke="#33384d" stroke-width="2"/><text x="195.19" y="50.71" text-anchor="middle" font-size="20" font-weight="600" fill="#12131c">III.aDNA</text><text x="195.19" y="72.11" text-anchor="middle" font-size="12.5" fill="#464c66">Argus</text></g><g class="node" data-slug="WilhelmAI.aDNA"><rect x="108.08" y="-141.57" width="168.6" height="51" rx="9" fill="#d3d5db" stroke="#33384d" stroke-width="1.2"/><text x="192.38" y="-120.07" text-anchor="middle" font-size="16.5" font-weight="600" fill="#12131c">WilhelmAI.aDNA</text><text x="192.38" y="-101.19" text-anchor="middle" font-size="12.5" fill="#464c66">Hygieia</text></g><g class="node" data-slug="RareArchive.aDNA"><rect x="172" y="-250.99" width="188.4" height="51" rx="9" fill="#d3d5db" stroke="#33384d" stroke-width="1.2"/><text x="266.2" y="-229.49" text-anchor="middle" font-size="16.5" font-weight="600" fill="#12131c">RareArchive.aDNA</text><text x="266.2" y="-210.61" text-anchor="middle" font-size="12.5" fill="#464c66">Mnemosyne</text></g><g class="node" data-slug="Astro.aDNA"><rect x="-115.81" y="35.71" width="150" height="38" rx="9" fill="#d3d5db" stroke="#33384d" stroke-width="2"/><text x="-40.81" y="61.71" text-anchor="middle" font-size="20" font-weight="600" fill="#12131c">Astro.aDNA</text></g><g class="node" data-slug="Molecules.aDNA"><rect x="-177.89" y="-85.98" width="168.6" height="51" rx="9" fill="#d3d5db" stroke="#33384d" stroke-width="1.2"/><text x="-93.59" y="-64.48" text-anchor="middle" font-size="16.5" font-weight="600" fill="#12131c">Molecules.aDNA</text><text x="-93.59" y="-45.6" text-anchor="middle" font-size="12.5" fill="#464c66">Franklin</text></g><g class="node" data-slug="TappProtocol.aDNA"><rect x="-302.17" y="-159.8" width="198.3" height="51" rx="9" fill="#d3d5db" stroke="#33384d" stroke-width="1.2"/><text x="-203.02" y="-138.3" text-anchor="middle" font-size="16.5" font-weight="600" fill="#12131c">TappProtocol.aDNA</text><text x="-203.02" y="-119.42" text-anchor="middle" font-size="12.5" fill="#464c66">Mentor</text></g><g class="node" data-slug="VAAS.aDNA"><rect x="-360.4" y="-217.78" width="119.1" height="35" rx="9" fill="#d3d5db" stroke="#33384d" stroke-width="1.2"/><text x="-300.85" y="-194.5" text-anchor="middle" font-size="16.5" font-weight="600" fill="#12131c">VAAS.aDNA</text></g><g class="node" data-slug="Harness.aDNA"><rect x="-112.4" y="200" width="148.8" height="51" rx="9" fill="#d3d5db" stroke="#33384d" stroke-width="1.2"/><text x="-38" y="221.5" text-anchor="middle" font-size="16.5" font-weight="600" fill="#12131c">Harness.aDNA</text><text x="-38" y="240.38" text-anchor="middle" font-size="12.5" fill="#464c66">Panacea</text></g><g class="node" data-slug="Oration.aDNA"><rect x="-306.95" y="273" width="148.8" height="51" rx="9" fill="#d3d5db" stroke="#33384d" stroke-width="1.2"/><text x="-232.55" y="294.5" text-anchor="middle" font-size="16.5" font-weight="600" fill="#12131c">Oration.aDNA</text><text x="-232.55" y="313.38" text-anchor="middle" font-size="12.5" fill="#464c66">Robert Kennedy</text></g><g class="node" data-slug="sciencestanley"><rect x="-341.6" y="407" width="218.1" height="35" rx="9" fill="#d3d5db" stroke="#33384d" stroke-width="1.2"/><text x="-232.55" y="430.28" text-anchor="middle" font-size="16.5" font-weight="600" fill="#12131c">ScienceStanley.aDNA</text></g><g class="node" data-slug="zenzachary"><rect x="-430.92" y="462" width="178.5" height="51" rx="9" fill="#d3d5db" stroke="#33384d" stroke-width="1.2"/><text x="-341.67" y="483.5" text-anchor="middle" font-size="16.5" font-weight="600" fill="#12131c">ZenZachary.aDNA</text><text x="-341.67" y="502.38" text-anchor="middle" font-size="12.5" fill="#464c66">pygmalion</text></g><g class="node" data-slug="visualdna"><rect x="-207.73" y="462" width="168.6" height="51" rx="9" fill="#d3d5db" stroke="#33384d" stroke-width="1.2"/><text x="-123.43" y="483.5" text-anchor="middle" font-size="16.5" font-weight="600" fill="#12131c">VisualDNA.aDNA</text><text x="-123.43" y="502.38" text-anchor="middle" font-size="12.5" fill="#464c66">pygmalion</text></g><g class="node" data-slug="RemoteControl.aDNA"><rect x="189.68" y="273" width="208.2" height="51" rx="9" fill="#d3d5db" stroke="#33384d" stroke-width="1.2"/><text x="293.78" y="294.5" text-anchor="middle" font-size="16.5" font-weight="600" fill="#12131c">RemoteControl.aDNA</text><text x="293.78" y="313.38" text-anchor="middle" font-size="12.5" fill="#464c66">Talos</text></g><g class="node" data-slug="terminal"><rect x="214.43" y="399" width="158.7" height="51" rx="9" fill="#d3d5db" stroke="#33384d" stroke-width="1.2"/><text x="293.78" y="420.5" text-anchor="middle" font-size="16.5" font-weight="600" fill="#12131c">Terminal.aDNA</text><text x="293.78" y="439.38" text-anchor="middle" font-size="12.5" fill="#464c66">berthier</text></g></g></svg>
