<!-- GENERATED by scripts/build_graph_svg.mjs from site/src/data/vaults.json — do not edit by hand; run `npm run sync:graph`. 68 vaults, 14 edges; 15 connected (radial) + 53 not-yet-linked (grid). -->
<svg id="vaultsGraph" xmlns="http://www.w3.org/2000/svg" class="vaults-graph-svg" viewBox="-602 -66 1178.4 2371.33" role="img" aria-labelledby="vaultsGraph-title vaultsGraph-desc" style="max-width:100%;height:auto"><title id="vaultsGraph-title">aDNA vault network topology — 68 vaults, 14 edges</title><desc id="vaultsGraph-desc">A directed radial graph of the aDNA network: 15 of 68 vaults are joined by 14 cited relationships (umbrella, federation, partner, companion, supersedes) and are drawn as a radial burst around the most-federated hubs; the remaining 53 vaults carry no cited relationship yet and sit in the labelled &quot;not yet linked&quot; grid below, grouped by class. Each box names a vault and its persona; the accompanying vault list is the keyboard-navigable twin.</desc><style>
/* Theme adaptation (build_graph_svg.mjs): edges, arrowheads and section labels follow the page text
   colour so the graph reads on both the dark (default, Tokyo Night) and light canvases. The vault
   chips keep their self-grounding light fill + near-black text (set inline), legible on either canvas. */
#vaultsGraph{color:var(--color-text,#c0caf5);}
#vaultsGraph text{font-family:'Space Grotesk',system-ui,sans-serif;}
#vaultsGraph .edge{stroke:currentColor;fill:none;stroke-opacity:0.72;}
#vaultsGraph .edge-arrow{fill:currentColor;stroke:none;fill-opacity:0.82;}
#vaultsGraph .section-label{fill:currentColor;}
#vaultsGraph .group-label{fill:currentColor;fill-opacity:0.66;text-transform:uppercase;}
#vaultsGraph .divider{stroke:currentColor;stroke-opacity:0.22;}
</style><g class="edges"><line class="edge" x1="-119.85" y1="328.07" x2="-70.72" y2="446.2" stroke-width="1.6"/><path class="edge-arrow" d="M-70.72,446.2 L-76.97,440.3 L-70.5,437.6 Z"/><line class="edge" x1="-184.25" y1="865.33" x2="-184.25" y2="768.33" stroke-width="1.6"/><path class="edge-arrow" d="M-184.25,768.33 L-180.74,776.18 L-187.76,776.18 Z"/><line class="edge" x1="-153.94" y1="900.33" x2="-107.18" y2="927.33" stroke-width="1.6"/><path class="edge-arrow" d="M-107.18,927.33 L-115.73,926.44 L-112.22,920.37 Z"/><line class="edge" x1="154.41" y1="328.07" x2="-32.72" y2="446.2" stroke-width="1.6"/><path class="edge-arrow" d="M-32.72,446.2 L-27.95,439.04 L-24.21,444.97 Z"/><line class="edge" x1="184.21" y1="328.07" x2="138.62" y2="437.7" stroke-width="1.6"/><path class="edge-arrow" d="M138.62,437.7 L138.39,429.1 L144.87,431.8 Z"/><line class="edge" x1="220.31" y1="277.07" x2="275.38" y2="222" stroke-width="3.4"/><path class="edge-arrow" d="M275.38,222 L271.66,231.71 L265.67,225.72 Z"/><line class="edge" x1="-261.32" y1="927.33" x2="-214.56" y2="900.33" stroke-width="1.6" stroke-dasharray="7 5"/><path class="edge-arrow" d="M-214.56,900.33 L-219.61,907.29 L-223.11,901.22 Z"/><line class="edge" x1="-216.24" y1="952.83" x2="-147.31" y2="952.83" stroke-width="1.6"/><path class="edge-arrow" d="M-147.31,952.83 L-155.16,956.34 L-155.16,949.32 Z"/><line class="edge" x1="-119.85" y1="602.33" x2="-70.72" y2="484.2" stroke-width="1.6"/><path class="edge-arrow" d="M-70.72,484.2 L-70.5,492.8 L-76.97,490.1 Z"/><line class="edge" x1="-90.05" y1="602.33" x2="83.62" y2="492.7" stroke-width="1.6"/><path class="edge-arrow" d="M83.62,492.7 L78.85,499.86 L75.1,493.93 Z"/><line class="edge" x1="290.64" y1="768.33" x2="290.64" y2="857.33" stroke-width="1.6" stroke-dasharray="7 5"/><path class="edge-arrow" d="M290.64,857.33 L287.13,849.48 L294.15,849.48 Z"/><line class="edge" x1="-211.02" y1="222" x2="-155.95" y2="277.07" stroke-width="1.6" stroke-dasharray="7 5"/><path class="edge-arrow" d="M-155.95,277.07 L-163.98,274 L-159.02,269.04 Z"/><line class="edge" x1="-262.02" y1="171" x2="-318.02" y2="115" stroke-width="1.6" stroke-dasharray="7 5"/><path class="edge-arrow" d="M-318.02,115 L-309.99,118.07 L-314.95,123.03 Z"/><line class="edge" x1="184.21" y1="602.33" x2="138.62" y2="492.7" stroke-width="1.6"/><path class="edge-arrow" d="M138.62,492.7 L144.87,498.6 L138.39,501.3 Z"/></g><line class="divider" x1="-527.2" y1="1030.33" x2="527.2" y2="1030.33" stroke-width="1"/><text class="section-label" x="0" y="0" text-anchor="middle" font-size="21" font-weight="700">The connected network — 15 vaults, 14 relationships</text><text class="section-label" x="0" y="1070.33" text-anchor="middle" font-size="21" font-weight="700">Not yet linked — 53 vaults with no cited relationship yet</text><text class="group-label" x="-560" y="1110.33" font-size="13" font-weight="600" letter-spacing="0.04em">Platform · 26</text><text class="group-label" x="-560" y="1324.33" font-size="13" font-weight="600" letter-spacing="0.04em">Forge · 6</text><text class="group-label" x="-560" y="1412.33" font-size="13" font-weight="600" letter-spacing="0.04em">Framework · 5</text><text class="group-label" x="-560" y="1500.33" font-size="13" font-weight="600" letter-spacing="0.04em">Genesis stub · 4</text><text class="group-label" x="-560" y="1588.33" font-size="13" font-weight="600" letter-spacing="0.04em">Org-Graph · 3</text><text class="group-label" x="-560" y="1676.33" font-size="13" font-weight="600" letter-spacing="0.04em">Org-Vault · 3</text><text class="group-label" x="-560" y="1764.33" font-size="13" font-weight="600" letter-spacing="0.04em">Coordination · 1</text><text class="group-label" x="-560" y="1852.33" font-size="13" font-weight="600" letter-spacing="0.04em">Knowledge-graph · 1</text><text class="group-label" x="-560" y="1940.33" font-size="13" font-weight="600" letter-spacing="0.04em">Network · 1</text><text class="group-label" x="-560" y="2028.33" font-size="13" font-weight="600" letter-spacing="0.04em">Node (operational) · 1</text><text class="group-label" x="-560" y="2116.33" font-size="13" font-weight="600" letter-spacing="0.04em">Tooling · 1</text><text class="group-label" x="-560" y="2204.33" font-size="13" font-weight="600" letter-spacing="0.04em">Workspace · 1</text><g class="nodes"><g class="node" data-slug="Astro.aDNA"><rect x="-137.82" y="446.2" width="150" height="38" rx="9" fill="#d3d5db" stroke="#33384d" stroke-width="2"/><text x="-62.82" y="472.2" text-anchor="middle" font-size="20" font-weight="600" fill="#12131c">Astro.aDNA</text></g><g class="node" data-slug="Molecules.aDNA"><rect x="-214.75" y="277.07" width="168.6" height="51" rx="9" fill="#d3d5db" stroke="#33384d" stroke-width="1.2"/><text x="-130.45" y="298.57" text-anchor="middle" font-size="16.5" font-weight="600" fill="#12131c">Molecules.aDNA</text><text x="-130.45" y="317.45" text-anchor="middle" font-size="12.5" fill="#464c66">Franklin</text></g><g class="node" data-slug="Oration.aDNA"><rect x="-258.65" y="717.33" width="148.8" height="51" rx="9" fill="#d3d5db" stroke="#33384d" stroke-width="1.2"/><text x="-184.25" y="738.83" text-anchor="middle" font-size="16.5" font-weight="600" fill="#12131c">Oration.aDNA</text><text x="-184.25" y="757.71" text-anchor="middle" font-size="12.5" fill="#464c66">Robert Kennedy</text></g><g class="node" data-slug="III.aDNA"><rect x="64.18" y="437.7" width="126" height="55" rx="9" fill="#d3d5db" stroke="#33384d" stroke-width="2"/><text x="127.18" y="461.2" text-anchor="middle" font-size="20" font-weight="600" fill="#12131c">III.aDNA</text><text x="127.18" y="482.6" text-anchor="middle" font-size="12.5" fill="#464c66">Argus</text></g><g class="node" data-slug="visualdna"><rect x="-147.31" y="927.33" width="168.6" height="51" rx="9" fill="#d3d5db" stroke="#33384d" stroke-width="1.2"/><text x="-63.01" y="948.83" text-anchor="middle" font-size="16.5" font-weight="600" fill="#12131c">VisualDNA.aDNA</text><text x="-63.01" y="967.71" text-anchor="middle" font-size="12.5" fill="#464c66">pygmalion</text></g><g class="node" data-slug="VAAS.aDNA"><rect x="-395.07" y="80" width="119.1" height="35" rx="9" fill="#d3d5db" stroke="#33384d" stroke-width="1.2"/><text x="-335.52" y="103.28" text-anchor="middle" font-size="16.5" font-weight="600" fill="#12131c">VAAS.aDNA</text></g><g class="node" data-slug="RareArchive.aDNA"><rect x="206.68" y="171" width="188.4" height="51" rx="9" fill="#d3d5db" stroke="#33384d" stroke-width="1.2"/><text x="300.88" y="192.5" text-anchor="middle" font-size="16.5" font-weight="600" fill="#12131c">RareArchive.aDNA</text><text x="300.88" y="211.38" text-anchor="middle" font-size="12.5" fill="#464c66">Mnemosyne</text></g><g class="node" data-slug="sciencestanley"><rect x="-293.3" y="865.33" width="218.1" height="35" rx="9" fill="#d3d5db" stroke="#33384d" stroke-width="1.2"/><text x="-184.25" y="888.61" text-anchor="middle" font-size="16.5" font-weight="600" fill="#12131c">ScienceStanley.aDNA</text></g><g class="node" data-slug="WilhelmAI.aDNA"><rect x="110.51" y="277.07" width="168.6" height="51" rx="9" fill="#d3d5db" stroke="#33384d" stroke-width="1.2"/><text x="194.81" y="298.57" text-anchor="middle" font-size="16.5" font-weight="600" fill="#12131c">WilhelmAI.aDNA</text><text x="194.81" y="317.45" text-anchor="middle" font-size="12.5" fill="#464c66">Hygieia</text></g><g class="node" data-slug="zenzachary"><rect x="-394.74" y="927.33" width="178.5" height="51" rx="9" fill="#d3d5db" stroke="#33384d" stroke-width="1.2"/><text x="-305.49" y="948.83" text-anchor="middle" font-size="16.5" font-weight="600" fill="#12131c">ZenZachary.aDNA</text><text x="-305.49" y="967.71" text-anchor="middle" font-size="12.5" fill="#464c66">pygmalion</text></g><g class="node" data-slug="Harness.aDNA"><rect x="-204.85" y="602.33" width="148.8" height="51" rx="9" fill="#d3d5db" stroke="#33384d" stroke-width="1.2"/><text x="-130.45" y="623.83" text-anchor="middle" font-size="16.5" font-weight="600" fill="#12131c">Harness.aDNA</text><text x="-130.45" y="642.71" text-anchor="middle" font-size="12.5" fill="#464c66">Panacea</text></g><g class="node" data-slug="RemoteControl.aDNA"><rect x="186.54" y="717.33" width="208.2" height="51" rx="9" fill="#d3d5db" stroke="#33384d" stroke-width="1.2"/><text x="290.64" y="738.83" text-anchor="middle" font-size="16.5" font-weight="600" fill="#12131c">RemoteControl.aDNA</text><text x="290.64" y="757.71" text-anchor="middle" font-size="12.5" fill="#464c66">Talos</text></g><g class="node" data-slug="TappProtocol.aDNA"><rect x="-335.67" y="171" width="198.3" height="51" rx="9" fill="#d3d5db" stroke="#33384d" stroke-width="1.2"/><text x="-236.52" y="192.5" text-anchor="middle" font-size="16.5" font-weight="600" fill="#12131c">TappProtocol.aDNA</text><text x="-236.52" y="211.38" text-anchor="middle" font-size="12.5" fill="#464c66">Mentor</text></g><g class="node" data-slug="terminal"><rect x="211.29" y="857.33" width="158.7" height="51" rx="9" fill="#d3d5db" stroke="#33384d" stroke-width="1.2"/><text x="290.64" y="878.83" text-anchor="middle" font-size="16.5" font-weight="600" fill="#12131c">Terminal.aDNA</text><text x="290.64" y="897.71" text-anchor="middle" font-size="12.5" fill="#464c66">berthier</text></g><g class="node" data-slug="aDNA.aDNA"><rect x="135.26" y="602.33" width="119.1" height="51" rx="9" fill="#7dcfff" stroke="#33384d" stroke-width="1.2"/><text x="194.81" y="623.83" text-anchor="middle" font-size="16.5" font-weight="600" fill="#12131c">aDNA.aDNA</text><text x="194.81" y="642.71" text-anchor="middle" font-size="12.5" fill="#464c66">Rosetta</text></g><g class="node" data-slug="Operations.aDNA"><rect x="-560" y="1790.33" width="160.5" height="33" rx="9" fill="#d3d5db" stroke="#33384d" stroke-width="1.2"/><text x="-479.75" y="1811.91" text-anchor="middle" font-size="14.5" font-weight="600" fill="#12131c">Operations.aDNA</text></g><g class="node" data-slug="ComfyUI.aDNA"><rect x="-560" y="1350.33" width="134.4" height="33" rx="9" fill="#d3d5db" stroke="#33384d" stroke-width="1.2"/><text x="-492.8" y="1371.91" text-anchor="middle" font-size="14.5" font-weight="600" fill="#12131c">ComfyUI.aDNA</text></g><g class="node" data-slug="d3"><rect x="-411.6" y="1350.33" width="92" height="33" rx="9" fill="#d3d5db" stroke="#33384d" stroke-width="1.2"/><text x="-365.6" y="1371.91" text-anchor="middle" font-size="14.5" font-weight="600" fill="#12131c">D3.aDNA</text></g><g class="node" data-slug="llamacppforge"><rect x="-305.6" y="1350.33" width="186.6" height="33" rx="9" fill="#d3d5db" stroke="#33384d" stroke-width="1.2"/><text x="-212.3" y="1371.91" text-anchor="middle" font-size="14.5" font-weight="600" fill="#12131c">LlamaCppForge.aDNA</text></g><g class="node" data-slug="regenesis"><rect x="-105" y="1350.33" width="151.8" height="33" rx="9" fill="#d3d5db" stroke="#33384d" stroke-width="1.2"/><text x="-29.1" y="1371.91" text-anchor="middle" font-size="14.5" font-weight="600" fill="#12131c">Regenesis.aDNA</text></g><g class="node" data-slug="threejs"><rect x="60.8" y="1350.33" width="134.4" height="33" rx="9" fill="#d3d5db" stroke="#33384d" stroke-width="1.2"/><text x="128" y="1371.91" text-anchor="middle" font-size="14.5" font-weight="600" fill="#12131c">ThreeJS.aDNA</text></g><g class="node" data-slug="Videos.aDNA"><rect x="209.2" y="1350.33" width="125.7" height="33" rx="9" fill="#d3d5db" stroke="#33384d" stroke-width="1.2"/><text x="272.05" y="1371.91" text-anchor="middle" font-size="14.5" font-weight="600" fill="#12131c">Videos.aDNA</text></g><g class="node" data-slug="git"><rect x="-560" y="1438.33" width="99.6" height="33" rx="9" fill="#d3d5db" stroke="#33384d" stroke-width="1.2"/><text x="-510.2" y="1459.91" text-anchor="middle" font-size="14.5" font-weight="600" fill="#12131c">Git.aDNA</text></g><g class="node" data-slug="organization"><rect x="-446.4" y="1438.33" width="177.9" height="33" rx="9" fill="#d3d5db" stroke="#33384d" stroke-width="1.2"/><text x="-357.45" y="1459.91" text-anchor="middle" font-size="14.5" font-weight="600" fill="#12131c">Organization.aDNA</text></g><g class="node" data-slug="react"><rect x="-254.5" y="1438.33" width="117" height="33" rx="9" fill="#d3d5db" stroke="#33384d" stroke-width="1.2"/><text x="-196" y="1459.91" text-anchor="middle" font-size="14.5" font-weight="600" fill="#12131c">React.aDNA</text></g><g class="node" data-slug="tailwind"><rect x="-123.5" y="1438.33" width="143.1" height="33" rx="9" fill="#d3d5db" stroke="#33384d" stroke-width="1.2"/><text x="-51.95" y="1459.91" text-anchor="middle" font-size="14.5" font-weight="600" fill="#12131c">Tailwind.aDNA</text></g><g class="node" data-slug="typescript"><rect x="33.6" y="1438.33" width="160.5" height="33" rx="9" fill="#d3d5db" stroke="#33384d" stroke-width="1.2"/><text x="113.85" y="1459.91" text-anchor="middle" font-size="14.5" font-weight="600" fill="#12131c">TypeScript.aDNA</text></g><g class="node" data-slug="LAVentureGraph.aDNA"><rect x="-560" y="1878.33" width="195.3" height="33" rx="9" fill="#d3d5db" stroke="#33384d" stroke-width="1.2"/><text x="-462.35" y="1899.91" text-anchor="middle" font-size="14.5" font-weight="600" fill="#12131c">LAVentureGraph.aDNA</text></g><g class="node" data-slug="Network.aDNA"><rect x="-560" y="1966.33" width="134.4" height="33" rx="9" fill="#d3d5db" stroke="#33384d" stroke-width="1.2"/><text x="-492.8" y="1987.91" text-anchor="middle" font-size="14.5" font-weight="600" fill="#12131c">Network.aDNA</text></g><g class="node" data-slug="Home.aDNA"><rect x="-560" y="2054.33" width="108.3" height="33" rx="9" fill="#d3d5db" stroke="#33384d" stroke-width="1.2"/><text x="-505.85" y="2075.9" text-anchor="middle" font-size="14.5" font-weight="600" fill="#12131c">Home.aDNA</text></g><g class="node" data-slug="CakeHealth.aDNA"><rect x="-560" y="1614.33" width="160.5" height="33" rx="9" fill="#d3d5db" stroke="#33384d" stroke-width="1.2"/><text x="-479.75" y="1635.91" text-anchor="middle" font-size="14.5" font-weight="600" fill="#12131c">CakeHealth.aDNA</text></g><g class="node" data-slug="percysleep"><rect x="-385.5" y="1614.33" width="160.5" height="33" rx="9" fill="#d3d5db" stroke="#33384d" stroke-width="1.2"/><text x="-305.25" y="1635.91" text-anchor="middle" font-size="14.5" font-weight="600" fill="#12131c">PercySleep.aDNA</text></g><g class="node" data-slug="SuperLeague.aDNA"><rect x="-211" y="1614.33" width="169.2" height="33" rx="9" fill="#d3d5db" stroke="#33384d" stroke-width="1.2"/><text x="-126.4" y="1635.91" text-anchor="middle" font-size="14.5" font-weight="600" fill="#12131c">SuperLeague.aDNA</text></g><g class="node" data-slug="adnalabs"><rect x="-560" y="1702.33" width="143.1" height="33" rx="9" fill="#d3d5db" stroke="#33384d" stroke-width="1.2"/><text x="-488.45" y="1723.91" text-anchor="middle" font-size="14.5" font-weight="600" fill="#12131c">aDNALabs.aDNA</text></g><g class="node" data-slug="ContextCommons.aDNA"><rect x="-402.9" y="1702.33" width="195.3" height="33" rx="9" fill="#d3d5db" stroke="#33384d" stroke-width="1.2"/><text x="-305.25" y="1723.91" text-anchor="middle" font-size="14.5" font-weight="600" fill="#12131c">ContextCommons.aDNA</text></g><g class="node" data-slug="wga.aDNA"><rect x="-193.6" y="1702.33" width="99.6" height="33" rx="9" fill="#d3d5db" stroke="#33384d" stroke-width="1.2"/><text x="-143.8" y="1723.91" text-anchor="middle" font-size="14.5" font-weight="600" fill="#12131c">wga.aDNA</text></g><g class="node" data-slug="apscheduler"><rect x="-560" y="1136.33" width="169.2" height="33" rx="9" fill="#d3d5db" stroke="#33384d" stroke-width="1.2"/><text x="-475.4" y="1157.91" text-anchor="middle" font-size="14.5" font-weight="600" fill="#12131c">APScheduler.aDNA</text></g><g class="node" data-slug="awsbootstrap"><rect x="-376.8" y="1136.33" width="177.9" height="33" rx="9" fill="#d3d5db" stroke="#33384d" stroke-width="1.2"/><text x="-287.85" y="1157.91" text-anchor="middle" font-size="14.5" font-weight="600" fill="#12131c">AWSBootstrap.aDNA</text></g><g class="node" data-slug="bitwarden"><rect x="-184.9" y="1136.33" width="151.8" height="33" rx="9" fill="#d3d5db" stroke="#33384d" stroke-width="1.2"/><text x="-109" y="1157.91" text-anchor="middle" font-size="14.5" font-weight="600" fill="#12131c">Bitwarden.aDNA</text></g><g class="node" data-slug="caddy"><rect x="-19.1" y="1136.33" width="117" height="33" rx="9" fill="#d3d5db" stroke="#33384d" stroke-width="1.2"/><text x="39.4" y="1157.91" text-anchor="middle" font-size="14.5" font-weight="600" fill="#12131c">Caddy.aDNA</text></g><g class="node" data-slug="cakeprotocol"><rect x="111.9" y="1136.33" width="177.9" height="33" rx="9" fill="#d3d5db" stroke="#33384d" stroke-width="1.2"/><text x="200.85" y="1157.91" text-anchor="middle" font-size="14.5" font-weight="600" fill="#12131c">CakeProtocol.aDNA</text></g><g class="node" data-slug="canvas"><rect x="303.8" y="1136.33" width="125.7" height="33" rx="9" fill="#d3d5db" stroke="#33384d" stroke-width="1.2"/><text x="366.65" y="1157.91" text-anchor="middle" font-size="14.5" font-weight="600" fill="#12131c">Canvas.aDNA</text></g><g class="node" data-slug="container"><rect x="-560" y="1178.33" width="151.8" height="33" rx="9" fill="#d3d5db" stroke="#33384d" stroke-width="1.2"/><text x="-484.1" y="1199.91" text-anchor="middle" font-size="14.5" font-weight="600" fill="#12131c">Container.aDNA</text></g><g class="node" data-slug="context"><rect x="-394.2" y="1178.33" width="134.4" height="33" rx="9" fill="#d3d5db" stroke="#33384d" stroke-width="1.2"/><text x="-327" y="1199.91" text-anchor="middle" font-size="14.5" font-weight="600" fill="#12131c">Context.aDNA</text></g><g class="node" data-slug="dashboards"><rect x="-245.8" y="1178.33" width="160.5" height="33" rx="9" fill="#d3d5db" stroke="#33384d" stroke-width="1.2"/><text x="-165.55" y="1199.91" text-anchor="middle" font-size="14.5" font-weight="600" fill="#12131c">Dashboards.aDNA</text></g><g class="node" data-slug="exchange"><rect x="-71.3" y="1178.33" width="143.1" height="33" rx="9" fill="#d3d5db" stroke="#33384d" stroke-width="1.2"/><text x="0.25" y="1199.91" text-anchor="middle" font-size="14.5" font-weight="600" fill="#12131c">Exchange.aDNA</text></g><g class="node" data-slug="fastapi"><rect x="85.8" y="1178.33" width="134.4" height="33" rx="9" fill="#d3d5db" stroke="#33384d" stroke-width="1.2"/><text x="153" y="1199.91" text-anchor="middle" font-size="14.5" font-weight="600" fill="#12131c">FastAPI.aDNA</text></g><g class="node" data-slug="forgejo"><rect x="234.2" y="1178.33" width="134.4" height="33" rx="9" fill="#d3d5db" stroke="#33384d" stroke-width="1.2"/><text x="301.4" y="1199.91" text-anchor="middle" font-size="14.5" font-weight="600" fill="#12131c">Forgejo.aDNA</text></g><g class="node" data-slug="groupware"><rect x="382.6" y="1178.33" width="151.8" height="33" rx="9" fill="#d3d5db" stroke="#33384d" stroke-width="1.2"/><text x="458.5" y="1199.91" text-anchor="middle" font-size="14.5" font-weight="600" fill="#12131c">Groupware.aDNA</text></g><g class="node" data-slug="inference"><rect x="-560" y="1220.33" width="151.8" height="33" rx="9" fill="#d3d5db" stroke="#33384d" stroke-width="1.2"/><text x="-484.1" y="1241.91" text-anchor="middle" font-size="14.5" font-weight="600" fill="#12131c">Inference.aDNA</text></g><g class="node" data-slug="lab"><rect x="-394.2" y="1220.33" width="99.6" height="33" rx="9" fill="#d3d5db" stroke="#33384d" stroke-width="1.2"/><text x="-344.4" y="1241.91" text-anchor="middle" font-size="14.5" font-weight="600" fill="#12131c">Lab.aDNA</text></g><g class="node" data-slug="latticeprotocol"><rect x="-280.6" y="1220.33" width="204" height="33" rx="9" fill="#d3d5db" stroke="#33384d" stroke-width="1.2"/><text x="-178.6" y="1241.91" text-anchor="middle" font-size="14.5" font-weight="600" fill="#12131c">LatticeProtocol.aDNA</text></g><g class="node" data-slug="lighthouse"><rect x="-62.6" y="1220.33" width="160.5" height="33" rx="9" fill="#d3d5db" stroke="#33384d" stroke-width="1.2"/><text x="17.65" y="1241.91" text-anchor="middle" font-size="14.5" font-weight="600" fill="#12131c">Lighthouse.aDNA</text></g><g class="node" data-slug="nebula"><rect x="111.9" y="1220.33" width="125.7" height="33" rx="9" fill="#d3d5db" stroke="#33384d" stroke-width="1.2"/><text x="174.75" y="1241.91" text-anchor="middle" font-size="14.5" font-weight="600" fill="#12131c">Nebula.aDNA</text></g><g class="node" data-slug="neo4j"><rect x="251.6" y="1220.33" width="117" height="33" rx="9" fill="#d3d5db" stroke="#33384d" stroke-width="1.2"/><text x="310.1" y="1241.91" text-anchor="middle" font-size="14.5" font-weight="600" fill="#12131c">Neo4j.aDNA</text></g><g class="node" data-slug="nextcloud"><rect x="382.6" y="1220.33" width="151.8" height="33" rx="9" fill="#d3d5db" stroke="#33384d" stroke-width="1.2"/><text x="458.5" y="1241.91" text-anchor="middle" font-size="14.5" font-weight="600" fill="#12131c">Nextcloud.aDNA</text></g><g class="node" data-slug="Obsidian.aDNA"><rect x="-560" y="1262.33" width="143.1" height="33" rx="9" fill="#d3d5db" stroke="#33384d" stroke-width="1.2"/><text x="-488.45" y="1283.91" text-anchor="middle" font-size="14.5" font-weight="600" fill="#12131c">Obsidian.aDNA</text></g><g class="node" data-slug="prefect"><rect x="-402.9" y="1262.33" width="134.4" height="33" rx="9" fill="#d3d5db" stroke="#33384d" stroke-width="1.2"/><text x="-335.7" y="1283.91" text-anchor="middle" font-size="14.5" font-weight="600" fill="#12131c">Prefect.aDNA</text></g><g class="node" data-slug="store"><rect x="-254.5" y="1262.33" width="117" height="33" rx="9" fill="#d3d5db" stroke="#33384d" stroke-width="1.2"/><text x="-196" y="1283.91" text-anchor="middle" font-size="14.5" font-weight="600" fill="#12131c">Store.aDNA</text></g><g class="node" data-slug="vercel"><rect x="-123.5" y="1262.33" width="125.7" height="33" rx="9" fill="#d3d5db" stroke="#33384d" stroke-width="1.2"/><text x="-60.65" y="1283.91" text-anchor="middle" font-size="14.5" font-weight="600" fill="#12131c">Vercel.aDNA</text></g><g class="node" data-slug="warp"><rect x="16.2" y="1262.33" width="108.3" height="33" rx="9" fill="#d3d5db" stroke="#33384d" stroke-width="1.2"/><text x="70.35" y="1283.91" text-anchor="middle" font-size="14.5" font-weight="600" fill="#12131c">Warp.aDNA</text></g><g class="node" data-slug="webforge"><rect x="138.5" y="1262.33" width="143.1" height="33" rx="9" fill="#d3d5db" stroke="#33384d" stroke-width="1.2"/><text x="210.05" y="1283.91" text-anchor="middle" font-size="14.5" font-weight="600" fill="#12131c">WebForge.aDNA</text></g><g class="node" data-slug="dataroom"><rect x="-560" y="1526.33" width="143.1" height="33" rx="9" fill="#d3d5db" stroke="#33384d" stroke-width="1.2"/><text x="-488.45" y="1547.91" text-anchor="middle" font-size="14.5" font-weight="600" fill="#12131c">DataRoom.aDNA</text></g><g class="node" data-slug="datasets"><rect x="-402.9" y="1526.33" width="143.1" height="33" rx="9" fill="#d3d5db" stroke="#33384d" stroke-width="1.2"/><text x="-331.35" y="1547.91" text-anchor="middle" font-size="14.5" font-weight="600" fill="#12131c">Datasets.aDNA</text></g><g class="node" data-slug="magnapetra"><rect x="-245.8" y="1526.33" width="160.5" height="33" rx="9" fill="#d3d5db" stroke="#33384d" stroke-width="1.2"/><text x="-165.55" y="1547.91" text-anchor="middle" font-size="14.5" font-weight="600" fill="#12131c">MagnaPetra.aDNA</text></g><g class="node" data-slug="worldgenome"><rect x="-71.3" y="1526.33" width="169.2" height="33" rx="9" fill="#d3d5db" stroke="#33384d" stroke-width="1.2"/><text x="13.3" y="1547.91" text-anchor="middle" font-size="14.5" font-weight="600" fill="#12131c">WorldGenome.aDNA</text></g><g class="node" data-slug="Spacemacs.aDNA"><rect x="-560" y="2142.33" width="151.8" height="33" rx="9" fill="#d3d5db" stroke="#33384d" stroke-width="1.2"/><text x="-484.1" y="2163.9" text-anchor="middle" font-size="14.5" font-weight="600" fill="#12131c">Spacemacs.aDNA</text></g><g class="node" data-slug="zeta.aDNA"><rect x="-560" y="2230.33" width="108.3" height="33" rx="9" fill="#d3d5db" stroke="#33384d" stroke-width="1.2"/><text x="-505.85" y="2251.9" text-anchor="middle" font-size="14.5" font-weight="600" fill="#12131c">zeta.aDNA</text></g></g></svg>
